<svg width="31" height="31" viewBox="0 0 31 31" fill="none" xmlns="http://www.w3.org/2000/svg">
<g id="Frame" clip-path="url(#clip0_1416_316)">
<path id="Vector" d="M21.9212 4.01248L27.0418 4.01248C27.3814 4.01248 27.707 4.14736 27.947 4.38743C28.1871 4.62751 28.322 4.95313 28.322 5.29265V25.7753C28.322 26.1148 28.1871 26.4405 27.947 26.6805C27.707 26.9206 27.3814 27.0555 27.0418 27.0555H3.99882C3.6593 27.0555 3.33368 26.9206 3.09361 26.6805C2.85353 26.4405 2.71865 26.1148 2.71865 25.7753L2.71865 5.29265C2.71865 4.95313 2.85353 4.62751 3.09361 4.38743C3.33368 4.14736 3.6593 4.01248 3.99882 4.01248H9.11949V1.45215H11.6798V4.01248H19.3608V1.45215H21.9212V4.01248ZM5.27899 11.6935L5.27899 24.4952H25.7617V11.6935H5.27899ZM7.83932 16.8142H14.2402V21.9348H7.83932V16.8142Z" fill="white"/>
</g>
<defs>
<clipPath id="clip0_1416_316">
<rect width="30.724" height="30.724" fill="white" transform="translate(0.158317 0.171875)"/>
</clipPath>
</defs>
</svg>
