<svg width="31" height="32" viewBox="0 0 31 32" fill="none" xmlns="http://www.w3.org/2000/svg">
<g id="Frame" clip-path="url(#clip0_1416_332)">
<path id="Vector" d="M5.12087 23.6509H7.6812V26.2112H23.0432V5.72855L7.6812 5.72855V8.28888H5.12087V4.44838C5.12087 4.10886 5.25574 3.78324 5.49582 3.54317C5.7359 3.30309 6.06151 3.16821 6.40103 3.16821L24.3234 3.16821C24.6629 3.16821 24.9885 3.30309 25.2286 3.54317C25.4687 3.78324 25.6035 4.10886 25.6035 4.44838V27.4914C25.6035 27.8309 25.4687 28.1565 25.2286 28.3966C24.9885 28.6367 24.6629 28.7716 24.3234 28.7716H6.40103C6.06151 28.7716 5.7359 28.6367 5.49582 28.3966C5.25574 28.1565 5.12087 27.8309 5.12087 27.4914V23.6509ZM7.6812 14.6897H16.6424V17.2501H7.6812V21.0906L1.28036 15.9699L7.6812 10.8492V14.6897Z" fill="white"/>
</g>
<defs>
<clipPath id="clip0_1416_332">
<rect width="30.724" height="30.724" fill="white" transform="translate(0 0.60791)"/>
</clipPath>
</defs>
</svg>
