<svg width="31" height="32" viewBox="0 0 31 32" fill="none" xmlns="http://www.w3.org/2000/svg">
<g id="Frame" clip-path="url(#clip0_1416_324)">
<path id="Vector" d="M2.71868 11.8577C2.71801 10.8491 2.91628 9.85041 3.30214 8.91863C3.688 7.98686 4.25388 7.14035 4.96736 6.42758C5.68084 5.71481 6.52792 5.14978 7.46008 4.76485C8.39224 4.37992 9.39118 4.18265 10.3997 4.18434L20.641 4.18434C24.8822 4.18434 28.322 7.63439 28.322 11.8577V27.2273H10.3997C6.15849 27.2273 2.71868 23.7773 2.71868 19.554V11.8577ZM25.7617 24.667V11.8577C25.7583 10.5013 25.2175 9.20162 24.2577 8.24326C23.2979 7.2849 21.9974 6.74602 20.641 6.74467H10.3997C9.72741 6.74299 9.0614 6.87403 8.43988 7.13029C7.81835 7.38655 7.25352 7.76298 6.77779 8.238C6.30205 8.71302 5.92477 9.27729 5.66758 9.89843C5.41039 10.5196 5.27834 11.1854 5.27902 11.8577V19.554C5.2824 20.9104 5.82323 22.2101 6.78303 23.1684C7.74283 24.1268 9.04335 24.6657 10.3997 24.667H25.7617ZM18.0807 14.4257H20.641V16.986H18.0807V14.4257ZM10.3997 14.4257H12.96V16.986H10.3997V14.4257Z" fill="white"/>
</g>
<defs>
<clipPath id="clip0_1416_324">
<rect width="30.724" height="30.724" fill="white" transform="translate(0.158257 0.343994)"/>
</clipPath>
</defs>
</svg>
