<svg xmlns="http://www.w3.org/2000/svg" xmlns:xlink="http://www.w3.org/1999/xlink" width="500" zoomAndPan="magnify" viewBox="0 0 375 374.999991" height="500" preserveAspectRatio="xMidYMid meet" version="1.0"><defs><clipPath id="87b6c474c4"><path d="M 138.445312 142.023438 L 187.5 142.023438 L 187.5 191.078125 L 138.445312 191.078125 Z M 138.445312 142.023438 " clip-rule="nonzero"/></clipPath><clipPath id="a7c6b50811"><path d="M 138.445312 166.554688 C 138.445312 180.101562 149.425781 191.078125 162.96875 191.078125 C 176.515625 191.078125 187.496094 180.101562 187.496094 166.554688 L 187.496094 142.027344 L 162.96875 142.027344 C 149.425781 142.023438 138.445312 153.007812 138.445312 166.554688 Z M 138.445312 166.554688 " clip-rule="nonzero"/></clipPath><clipPath id="a4ed835c46"><path d="M 190.023438 90.449219 L 239.078125 90.449219 L 239.078125 139.503906 L 190.023438 139.503906 Z M 190.023438 90.449219 " clip-rule="nonzero"/></clipPath><clipPath id="34074f7595"><path d="M 239.078125 114.972656 C 239.078125 101.429688 228.097656 90.449219 214.550781 90.449219 C 201.007812 90.449219 190.027344 101.429688 190.027344 114.972656 L 190.027344 139.5 L 214.550781 139.5 C 228.097656 139.503906 239.078125 128.519531 239.078125 114.972656 Z M 239.078125 114.972656 " clip-rule="nonzero"/></clipPath><clipPath id="0628b24bcf"><path d="M 138.445312 90.449219 L 187.5 90.449219 L 187.5 139.503906 L 138.445312 139.503906 Z M 138.445312 90.449219 " clip-rule="nonzero"/></clipPath><clipPath id="c0a3a6475e"><path d="M 162.96875 90.449219 C 149.425781 90.449219 138.445312 101.429688 138.445312 114.972656 C 138.445312 128.519531 149.425781 139.5 162.96875 139.5 L 187.496094 139.5 L 187.496094 114.972656 C 187.5 101.429688 176.515625 90.449219 162.96875 90.449219 Z M 162.96875 90.449219 " clip-rule="nonzero"/></clipPath><clipPath id="5bb0a24549"><path d="M 190.023438 142.023438 L 239.078125 142.023438 L 239.078125 191.078125 L 190.023438 191.078125 Z M 190.023438 142.023438 " clip-rule="nonzero"/></clipPath><clipPath id="91a365424e"><path d="M 214.550781 191.078125 C 228.097656 191.078125 239.078125 180.101562 239.078125 166.554688 C 239.078125 153.007812 228.097656 142.027344 214.550781 142.027344 L 190.027344 142.027344 L 190.027344 166.554688 C 190.023438 180.101562 201.007812 191.078125 214.550781 191.078125 Z M 214.550781 191.078125 " clip-rule="nonzero"/></clipPath><clipPath id="6ff4caf742"><path d="M 174 126 L 203 126 L 203 155 L 174 155 Z M 174 126 " clip-rule="nonzero"/></clipPath><clipPath id="9749324f9b"><path d="M 169.152344 140.761719 L 188.761719 121.148438 L 208.371094 140.761719 L 188.761719 160.371094 Z M 169.152344 140.761719 " clip-rule="nonzero"/></clipPath><clipPath id="a2aacb0d22"><path d="M 178.957031 130.957031 C 173.542969 136.371094 173.542969 145.152344 178.957031 150.566406 C 184.371094 155.980469 193.152344 155.980469 198.566406 150.566406 C 203.984375 145.152344 203.984375 136.371094 198.566406 130.957031 C 193.152344 125.539062 184.371094 125.539062 178.957031 130.957031 Z M 178.957031 130.957031 " clip-rule="nonzero"/></clipPath></defs><g clip-path="url(#87b6c474c4)"><g clip-path="url(#a7c6b50811)"><path fill="#ffffff" d="M 138.445312 191.078125 L 138.445312 142.023438 L 187.5 142.023438 L 187.5 191.078125 Z M 138.445312 191.078125 " fill-opacity="1" fill-rule="nonzero"/></g></g><g clip-path="url(#a4ed835c46)"><g clip-path="url(#34074f7595)"><path fill="#ffffff" d="M 239.078125 90.449219 L 239.078125 139.503906 L 190.023438 139.503906 L 190.023438 90.449219 Z M 239.078125 90.449219 " fill-opacity="1" fill-rule="nonzero"/></g></g><g clip-path="url(#0628b24bcf)"><g clip-path="url(#c0a3a6475e)"><path fill="#ffffff" d="M 138.445312 90.449219 L 187.5 90.449219 L 187.5 139.503906 L 138.445312 139.503906 Z M 138.445312 90.449219 " fill-opacity="1" fill-rule="nonzero"/></g></g><g clip-path="url(#5bb0a24549)"><g clip-path="url(#91a365424e)"><path fill="#ffffff" d="M 239.078125 191.078125 L 190.023438 191.078125 L 190.023438 142.023438 L 239.078125 142.023438 Z M 239.078125 191.078125 " fill-opacity="1" fill-rule="nonzero"/></g></g><g clip-path="url(#6ff4caf742)"><g clip-path="url(#9749324f9b)"><g clip-path="url(#a2aacb0d22)"><path fill="#ffffff" d="M 169.152344 140.761719 L 188.761719 121.148438 L 208.371094 140.761719 L 188.761719 160.371094 Z M 169.152344 140.761719 " fill-opacity="1" fill-rule="nonzero"/></g></g></g></svg>