<svg xmlns="http://www.w3.org/2000/svg" xmlns:xlink="http://www.w3.org/1999/xlink" width="500" zoomAndPan="magnify" viewBox="0 0 375 374.999991" height="500" preserveAspectRatio="xMidYMid meet" version="1.0"><defs><clipPath id="a68591f700"><path d="M 137.183594 188.761719 L 186.238281 188.761719 L 186.238281 237.816406 L 137.183594 237.816406 Z M 137.183594 188.761719 " clip-rule="nonzero"/></clipPath><clipPath id="ea07cb51e9"><path d="M 137.183594 213.289062 C 137.183594 226.835938 148.164062 237.816406 161.710938 237.816406 C 175.253906 237.816406 186.234375 226.835938 186.234375 213.289062 L 186.234375 188.765625 L 161.710938 188.765625 C 148.164062 188.761719 137.183594 199.746094 137.183594 213.289062 Z M 137.183594 213.289062 " clip-rule="nonzero"/></clipPath><clipPath id="2d343a58de"><path d="M 188.761719 137.183594 L 237.816406 137.183594 L 237.816406 186.238281 L 188.761719 186.238281 Z M 188.761719 137.183594 " clip-rule="nonzero"/></clipPath><clipPath id="a94ede7f8c"><path d="M 237.816406 161.710938 C 237.816406 148.164062 226.835938 137.183594 213.289062 137.183594 C 199.746094 137.183594 188.765625 148.164062 188.765625 161.710938 L 188.765625 186.234375 L 213.289062 186.234375 C 226.835938 186.238281 237.816406 175.253906 237.816406 161.710938 Z M 237.816406 161.710938 " clip-rule="nonzero"/></clipPath><clipPath id="36ef2742f5"><path d="M 137.183594 137.183594 L 186.238281 137.183594 L 186.238281 186.238281 L 137.183594 186.238281 Z M 137.183594 137.183594 " clip-rule="nonzero"/></clipPath><clipPath id="685ab24b59"><path d="M 161.710938 137.183594 C 148.164062 137.183594 137.183594 148.164062 137.183594 161.710938 C 137.183594 175.253906 148.164062 186.234375 161.710938 186.234375 L 186.234375 186.234375 L 186.234375 161.710938 C 186.238281 148.164062 175.253906 137.183594 161.710938 137.183594 Z M 161.710938 137.183594 " clip-rule="nonzero"/></clipPath><clipPath id="c1693c0a33"><path d="M 188.761719 188.761719 L 237.816406 188.761719 L 237.816406 237.816406 L 188.761719 237.816406 Z M 188.761719 188.761719 " clip-rule="nonzero"/></clipPath><clipPath id="e26af74b5e"><path d="M 213.289062 237.816406 C 226.835938 237.816406 237.816406 226.835938 237.816406 213.289062 C 237.816406 199.746094 226.835938 188.765625 213.289062 188.765625 L 188.765625 188.765625 L 188.765625 213.289062 C 188.761719 226.835938 199.746094 237.816406 213.289062 237.816406 Z M 213.289062 237.816406 " clip-rule="nonzero"/></clipPath><clipPath id="6b97838c71"><path d="M 173 173 L 202 173 L 202 202 L 173 202 Z M 173 173 " clip-rule="nonzero"/></clipPath><clipPath id="f854022ed0"><path d="M 167.890625 187.496094 L 187.5 167.886719 L 207.113281 187.496094 L 187.5 207.105469 Z M 167.890625 187.496094 " clip-rule="nonzero"/></clipPath><clipPath id="abf7154158"><path d="M 177.695312 177.691406 C 172.28125 183.105469 172.28125 191.886719 177.695312 197.300781 C 183.113281 202.71875 191.890625 202.71875 197.308594 197.300781 C 202.722656 191.886719 202.722656 183.105469 197.308594 177.691406 C 191.890625 172.277344 183.113281 172.277344 177.695312 177.691406 Z M 177.695312 177.691406 " clip-rule="nonzero"/></clipPath></defs><g clip-path="url(#a68591f700)"><g clip-path="url(#ea07cb51e9)"><path fill="#80c432" d="M 137.183594 237.816406 L 137.183594 188.761719 L 186.238281 188.761719 L 186.238281 237.816406 Z M 137.183594 237.816406 " fill-opacity="1" fill-rule="nonzero"/></g></g><g clip-path="url(#2d343a58de)"><g clip-path="url(#a94ede7f8c)"><path fill="#80c432" d="M 237.816406 137.183594 L 237.816406 186.238281 L 188.761719 186.238281 L 188.761719 137.183594 Z M 237.816406 137.183594 " fill-opacity="1" fill-rule="nonzero"/></g></g><g clip-path="url(#36ef2742f5)"><g clip-path="url(#685ab24b59)"><path fill="#80c432" d="M 137.183594 137.183594 L 186.238281 137.183594 L 186.238281 186.238281 L 137.183594 186.238281 Z M 137.183594 137.183594 " fill-opacity="1" fill-rule="nonzero"/></g></g><g clip-path="url(#c1693c0a33)"><g clip-path="url(#e26af74b5e)"><path fill="#80c432" d="M 237.816406 237.816406 L 188.761719 237.816406 L 188.761719 188.761719 L 237.816406 188.761719 Z M 237.816406 237.816406 " fill-opacity="1" fill-rule="nonzero"/></g></g><g clip-path="url(#6b97838c71)"><g clip-path="url(#f854022ed0)"><g clip-path="url(#abf7154158)"><path fill="#80c432" d="M 167.890625 187.496094 L 187.5 167.886719 L 207.113281 187.496094 L 187.5 207.105469 Z M 167.890625 187.496094 " fill-opacity="1" fill-rule="nonzero"/></g></g></g></svg>