<svg width="36" height="36" viewBox="0 0 36 36" fill="none" xmlns="http://www.w3.org/2000/svg">
<g id="Group">
<path id="Vector" d="M10.9645 17.8105L15.1201 17.8107C15.4847 17.8107 15.8491 17.4461 15.8491 17.0817L15.8492 12.4158C15.8493 10.1558 17.672 8.26022 19.8593 8.26029C20.2239 8.2603 20.5883 7.96866 20.5883 7.53132L20.5884 3.81282C20.5884 3.37547 20.2238 3.08382 19.8595 3.08381L19.2034 3.08379C14.3186 3.08363 10.236 7.16639 10.2358 12.1967L10.2356 17.0813C10.2356 17.4459 10.6002 17.8105 10.9646 17.8105L10.9645 17.8105Z" fill="#3E36B0"/>
<path id="Vector_2" d="M10.8192 0.969203C10.8192 0.604572 10.5276 0.240204 10.0902 0.24019L6.22605 0.240066C6.00738 0.240058 5.7887 0.313028 5.643 0.458724C5.57002 0.604676 5.49703 0.750373 5.49703 0.969044L5.49683 7.16594C4.47612 8.04084 3.89277 9.42589 3.89272 10.8841L3.89272 11.0298C5.13207 10.3738 6.73607 9.8633 8.63168 9.49897C8.85036 9.49897 9.06904 9.426 9.21499 9.42601C9.57966 8.11372 10.09 6.94738 10.8921 5.92647L10.892 0.969166L10.8192 0.969203Z" fill="#3E36B0"/>
<path id="Vector_3" d="M5.86064 31.6623L5.86071 29.4021C5.86072 29.1834 5.9337 28.9647 6.15239 28.8188L7.68344 27.6522L6.80871 21.3093C6.73575 20.872 7.02741 20.5074 7.39204 20.5074C7.75667 20.4344 8.19399 20.7261 8.19398 21.1635L9.14147 27.8708C9.21443 28.1624 9.06847 28.3811 8.84979 28.5268L7.31874 29.7668L7.31864 32.9018C9.14122 34.3598 11.1095 35.2349 12.8594 35.2349C13.2241 35.2349 13.5155 35.235 13.8071 35.162C14.6821 35.0163 15.4111 34.6517 16.2131 34.2144L14.828 31.0064C14.755 30.9334 14.755 30.7877 14.755 30.7148L14.7551 27.5068L12.4225 23.6429C12.2038 23.2782 12.3496 22.8409 12.6412 22.6222C13.0059 22.4035 13.4432 22.5492 13.6619 22.8409L16.0677 26.7779C16.1407 26.9236 16.2134 26.9965 16.2134 27.1425L16.2133 30.4231L17.3798 33.1935C20.4419 30.3503 22.119 24.9553 21.0985 19.779C20.5882 16.9357 19.276 14.6027 17.3805 13.0716L17.3803 17.0815C17.3803 18.2481 16.3596 19.2688 15.193 19.2687L10.9644 19.2684C9.79777 19.2683 8.77713 18.2476 8.77716 17.081L8.77732 12.1964C8.77734 11.759 8.77735 11.3215 8.85034 10.9571L8.77761 10.9571C2.07027 12.2692 -0.846059 15.9143 0.247334 21.7468C0.903498 25.3191 3.16338 29.0374 5.86086 31.6621L5.86064 31.6623Z" fill="#3E36B0"/>
<path id="Vector_4" d="M34.2941 22.0397L32.8361 22.0397L31.2323 15.8427C31.1593 15.4781 30.8677 15.2594 30.5033 15.2594C30.1387 15.2594 29.8473 15.5511 29.8473 15.8427L28.3891 24.081L27.5142 21.019C27.4413 20.7273 27.2226 20.5086 26.9309 20.5086C26.6393 20.4356 26.3476 20.5816 26.2019 20.8732L24.6709 23.3518L23.2857 18.7588C23.2128 18.4672 22.9211 18.2485 22.6297 18.2485C22.484 18.2485 22.3381 18.2485 22.2651 18.3214C22.4108 18.7588 22.4838 19.1234 22.5567 19.5608C22.7024 20.5085 22.8483 21.4564 22.8483 22.4041L23.7959 25.3934C23.8689 25.685 24.0875 25.9037 24.3792 25.9037C24.6708 25.9767 24.9625 25.8308 25.1082 25.5391L26.5662 23.0605L27.8784 27.5808C27.9513 27.8724 28.243 28.0911 28.6074 28.0911L28.6803 28.0911C29.045 28.0911 29.3364 27.7995 29.3364 27.5078L30.7219 19.4883L31.6695 22.9879C31.7425 23.2795 32.0341 23.5712 32.3985 23.5712L34.2941 23.571C34.7314 23.571 35.0231 23.2794 35.0231 22.8421C35.0231 22.3315 34.7314 22.0398 34.2941 22.0398L34.2941 22.0397Z" fill="#3E36B0"/>
</g>
</svg>
