<svg width="36" height="36" viewBox="0 0 36 36" fill="none" xmlns="http://www.w3.org/2000/svg">
<g id="Group">
<path id="Vector" d="M18.2629 35.3084L29.9296 35.3087C30.5736 35.3088 31.0963 34.7872 31.0963 34.1421L31.0965 27.2388C31.0976 27.2388 31.1445 26.4546 31.1934 26.1877C31.2494 25.8903 31.2729 25.7677 31.4724 25.2544C31.925 24.1403 33.1454 21.1372 33.7324 20.0581C34.6785 18.3011 35.7635 15.9316 35.7636 13.1422C35.7639 6.06617 30.0065 0.308652 22.9307 0.308424C15.8549 0.308195 10.0972 6.06555 10.0969 13.1414C10.0969 13.8601 10.1576 14.5786 10.2753 15.2856L7.90792 19.5788C7.70843 19.9405 7.71545 20.3803 7.92533 20.735C8.13547 21.0897 8.51698 21.308 8.92998 21.308L10.0966 21.308L10.0966 22.4747C10.0966 23.0101 10.4617 23.4758 10.981 23.6065L14.5158 24.491C14.6184 24.5165 14.7632 24.7033 14.7632 24.8082C14.7632 24.9132 14.6184 25.0999 14.5171 25.1244C14.4739 25.1361 14.4319 25.1488 14.3911 25.1639L12.0228 26.0483C11.5653 26.2186 11.2631 26.655 11.2631 27.1414L11.263 29.4748C11.263 30.1198 11.7846 30.6415 12.4297 30.6415L17.0963 30.6416L17.0962 34.1416C17.0962 34.7867 17.6188 35.3083 18.2629 35.3083L18.2629 35.3084Z" fill="#3E36B0"/>
<path id="Vector_2" d="M0.763551 21.3078C0.76353 21.9521 1.28591 22.4745 1.93018 22.4745C2.57445 22.4746 3.09687 21.9522 3.09689 21.3079C3.09691 20.6636 2.57453 20.1412 1.93026 20.1412C1.28598 20.1412 0.763572 20.6636 0.763551 21.3078Z" fill="#3E36B0"/>
<path id="Vector_3" d="M4.26325 22.4745C4.26323 23.1187 4.7856 23.6411 5.42988 23.6412C6.07415 23.6412 6.59656 23.1188 6.59658 22.4745C6.5966 21.8303 6.07422 21.3078 5.42995 21.3078C4.78568 21.3078 4.26327 21.8302 4.26325 22.4745Z" fill="#3E36B0"/>
<path id="Vector_4" d="M4.26294 27.1414C4.26292 27.7857 4.7853 28.3081 5.42957 28.3082C6.07384 28.3082 6.59626 27.7858 6.59628 27.1415C6.5963 26.4972 6.07392 25.9748 5.42965 25.9748C4.78537 25.9748 4.26296 26.4972 4.26294 27.1414Z" fill="#3E36B0"/>
<path id="Vector_5" d="M7.76288 24.8081C7.76286 25.4523 8.28524 25.9748 8.92951 25.9748C9.57378 25.9748 10.0962 25.4524 10.0962 24.8081C10.0962 24.1639 9.57386 23.6415 8.92958 23.6414C8.28531 23.6414 7.7629 24.1638 7.76288 24.8081Z" fill="#3E36B0"/>
<path id="Vector_6" d="M0.763246 24.8078C0.763225 25.4521 1.2856 25.9745 1.92988 25.9745C2.57415 25.9746 3.09656 25.4522 3.09658 24.8079C3.0966 24.1636 2.57422 23.6412 1.92995 23.6412C1.28568 23.6412 0.763267 24.1636 0.763246 24.8078Z" fill="#3E36B0"/>
<path id="Vector_7" d="M0.763063 28.3076C0.763042 28.9519 1.28542 29.4743 1.92969 29.4743C2.57397 29.4743 3.09638 28.9519 3.0964 28.3077C3.09642 27.6634 2.57404 27.141 1.92977 27.141C1.28549 27.1409 0.763084 27.6633 0.763063 28.3076Z" fill="#3E36B0"/>
</g>
</svg>
