<svg width="36" height="35" viewBox="0 0 36 35" fill="none" xmlns="http://www.w3.org/2000/svg">
<g id="Group">
<path id="Vector" d="M11.7046 12.1588L11.7046 11.8729C11.7048 5.37224 16.9739 0.104056 23.4752 0.104265C29.977 0.104475 35.2452 5.37188 35.245 11.8749C35.2449 14.4511 34.6504 16.376 33.3456 18.9856C33.2594 19.1582 32.8094 20.0442 32.6897 20.2855C32.4588 20.7516 32.2886 21.121 32.1478 21.47C31.8206 22.2803 31.6625 22.9638 31.6625 23.6455C31.6625 25.0606 32.0149 26.5149 32.6057 27.918C32.8142 28.4134 33.0375 28.8656 33.2596 29.2637C33.3899 29.497 33.4877 29.6562 33.5373 29.7305C33.9081 30.2869 33.6549 31.0435 33.0238 31.2644L22.7884 34.8462C22.2492 35.0351 21.6601 34.7457 21.4793 34.2039L19.6657 28.7626L15.7942 28.7625C13.5348 28.7624 11.7036 26.9316 11.7037 24.6719L11.7038 21.0862L10.1717 21.0861C8.85769 21.0861 8.09289 19.8971 8.65003 18.7038L11.7046 12.1588ZM25.3211 9.82751C27.0169 9.82757 28.3918 8.45298 28.3918 6.7572C28.3919 5.63431 27.5812 4.41811 26.0255 2.94369C25.6306 2.56962 25.012 2.5696 24.6174 2.94365C23.0616 4.41803 22.2508 5.63411 22.2508 6.757C22.2507 8.45278 23.6253 9.82746 25.3211 9.82751ZM28.9032 16.9925C30.599 16.9926 31.9736 15.6178 31.9737 13.922C31.9737 12.7991 31.1633 11.5831 29.6073 10.1087C29.2127 9.7344 28.5941 9.73438 28.1995 10.1087C26.6435 11.5831 25.8329 12.7989 25.8329 13.9218C25.8328 15.6176 27.2074 16.9925 28.9032 16.9925ZM1.26852 8.65413L1.2687 3.174C1.26876 1.47822 2.64368 0.10363 4.33946 0.103685C6.03524 0.10374 7.40982 1.47842 7.40977 3.17419L7.40959 8.65433C8.06131 9.39253 8.43319 10.3485 8.43316 11.3624C8.43309 13.6235 6.6001 15.4564 4.33896 15.4563C2.07782 15.4562 0.244956 13.6232 0.245028 11.3621C0.245061 10.3482 0.616729 9.39229 1.26852 8.65413ZM3.31551 9.07365C3.3155 9.36469 3.1917 9.64214 2.97468 9.8363C2.54259 10.223 2.29209 10.7711 2.29207 11.3622C2.29203 12.4928 3.20834 13.4092 4.339 13.4092C5.46942 13.4093 6.38604 12.493 6.38607 11.3623C6.38609 10.7712 6.1356 10.2231 5.70356 9.83639C5.48656 9.64219 5.36252 9.36474 5.36253 9.07372L5.36272 3.17413C5.36274 2.60903 4.90446 2.15071 4.33935 2.15069C3.774 2.15067 3.31568 2.60895 3.31566 3.17406L3.31551 9.07365ZM24.6376 5.992C24.8082 5.73615 25.0362 5.45167 25.3212 5.14099C25.6064 5.45171 25.8343 5.7362 26.005 5.99204C26.2438 6.35033 26.3448 6.61322 26.3448 6.75714C26.3448 7.32248 25.8864 7.78078 25.3211 7.78076C24.756 7.78074 24.2977 7.32243 24.2977 6.75707C24.2977 6.61313 24.3987 6.35024 24.6376 5.992L24.6376 5.992ZM28.2197 13.1564C28.3903 12.9006 28.6183 12.6161 28.9033 12.3054C29.1882 12.6161 29.4164 12.9006 29.5868 13.1564C29.8259 13.515 29.9269 13.7779 29.9269 13.9215C29.9268 14.4869 29.4685 14.9452 28.9032 14.9452C28.3378 14.9451 27.8798 14.4868 27.8798 13.9215C27.8798 13.7778 27.9806 13.5149 28.2197 13.1564L28.2197 13.1564Z" fill="#3E36B0"/>
</g>
</svg>
