<svg width="24" height="29" viewBox="0 0 24 29" fill="none" xmlns="http://www.w3.org/2000/svg">
<g id="Icons-2">
<path id="Vector" d="M21.0327 20.7958C21.6023 19.5591 21.9066 18.1738 21.9184 16.7631C21.9303 15.3525 21.6494 13.9602 21.1008 12.7101C20.5522 11.46 19.7528 10.3909 18.7737 9.59792C17.7947 8.8049 16.6663 8.31254 15.4891 8.16463C15.1154 7.09199 14.5625 6.12117 13.864 5.31129C13.1654 4.50141 12.3359 3.8694 11.4259 3.45373C10.5159 3.03806 9.54442 2.84743 8.57061 2.89344C7.5968 2.93945 6.64104 3.22114 5.76149 3.72136C4.88195 4.22158 4.09702 4.92987 3.4545 5.80312C2.81197 6.67636 2.32528 7.69629 2.02406 8.80083C1.72284 9.90536 1.61339 11.0714 1.70236 12.2279C1.79133 13.3845 2.07688 14.5074 2.5416 15.5282L1.95224 17.9974C1.89912 18.2226 1.89728 18.4605 1.94692 18.6868C1.99655 18.9131 2.09587 19.1196 2.23466 19.285C2.37345 19.4504 2.5467 19.5687 2.7366 19.6279C2.92649 19.687 3.12618 19.6849 3.31513 19.6215L5.3871 18.9192C6.22077 19.4674 7.13826 19.8107 8.08525 19.9288C8.46887 21.0443 9.04587 22.0506 9.77847 22.8819C10.5111 23.7131 11.3827 24.3506 12.3364 24.7526C13.2901 25.1546 14.3043 25.312 15.3125 25.2144C16.3208 25.1169 17.3004 24.7667 18.1872 24.1868L20.2592 24.8891C20.4484 24.9562 20.6494 24.9611 20.8408 24.9034C21.0322 24.8456 21.207 24.7272 21.3466 24.5609C21.4863 24.3945 21.5856 24.1862 21.634 23.9581C21.6825 23.73 21.6784 23.4905 21.6221 23.2649L21.0327 20.7958ZM5.46077 17.5475C5.40733 17.5468 5.35425 17.558 5.30422 17.5804L3.01125 18.3595L3.66507 15.627C3.68805 15.5414 3.69502 15.4509 3.68547 15.3618C3.67592 15.2727 3.6501 15.1871 3.60981 15.1112C2.85626 13.5957 2.59279 11.8046 2.86885 10.074C3.1449 8.34341 3.94151 6.7924 5.10913 5.71213C6.27674 4.63186 7.73508 4.0966 9.21038 4.20683C10.6857 4.31707 12.0765 5.06522 13.1217 6.31083C14.167 7.55645 14.7948 9.21389 14.8873 10.972C14.9798 12.7301 14.5306 14.468 13.6241 15.8595C12.7176 17.2509 11.4161 18.2003 9.96394 18.5292C8.51175 18.8582 7.00873 18.5442 5.73703 17.6462C5.65492 17.5821 5.55894 17.5478 5.46077 17.5475ZM19.9092 20.8945L20.5631 23.6271L18.2701 22.8479C18.1983 22.8205 18.1223 22.8122 18.0476 22.8236C17.9728 22.835 17.901 22.8658 17.8373 22.9138C17.1207 23.4188 16.3248 23.7433 15.4988 23.8671C14.6728 23.991 13.8342 23.9116 13.035 23.6339C12.2357 23.3562 11.4928 22.886 10.8521 22.2525C10.2114 21.619 9.68654 20.8356 9.31001 19.9508C11.1285 19.8062 12.8331 18.8442 14.0793 17.2593C15.3254 15.6744 16.0202 13.5849 16.0232 11.413C16.0211 10.789 15.9624 10.1672 15.8482 9.55834C16.8095 9.77351 17.7131 10.2616 18.4826 10.9812C19.252 11.7008 19.8646 12.6308 20.2684 13.6924C20.6723 14.754 20.8555 15.916 20.8026 17.0799C20.7497 18.2438 20.4622 19.3753 19.9645 20.3788C19.9242 20.4547 19.8984 20.5402 19.8888 20.6293C19.8793 20.7185 19.8863 20.809 19.9092 20.8945Z" fill="#0D0D0D" fill-opacity="0.75"/>
</g>
</svg>
