<svg width="27" height="26" viewBox="0 0 27 26" fill="none" xmlns="http://www.w3.org/2000/svg">
<g id="Extra Icons">
<path id="Vector" d="M13.5567 23.4665C14.2173 23.4673 14.8617 23.2623 15.4004 22.88C15.9391 22.4977 16.3453 21.957 16.5626 21.3332H10.5509C10.7681 21.957 11.1743 22.4977 11.713 22.88C12.2517 23.2623 12.8961 23.4673 13.5567 23.4665ZM21.0233 15.5583V10.6666C21.0233 7.23513 18.6927 4.34449 15.5354 3.47516C15.2228 2.68796 14.4591 2.1333 13.5567 2.1333C12.6543 2.1333 11.8906 2.68796 11.5781 3.47516C8.42076 4.34555 6.09011 7.23513 6.09011 10.6666V15.5583L4.26932 17.3791C4.17007 17.478 4.09137 17.5955 4.03773 17.7249C3.98409 17.8543 3.95659 17.9931 3.95679 18.1332V19.1999C3.95679 19.4828 4.06917 19.7541 4.26921 19.9541C4.46924 20.1541 4.74055 20.2665 5.02345 20.2665H22.09C22.3729 20.2665 22.6442 20.1541 22.8442 19.9541C23.0443 19.7541 23.1567 19.4828 23.1567 19.1999V18.1332C23.1569 17.9931 23.1294 17.8543 23.0757 17.7249C23.0221 17.5955 22.9434 17.478 22.8441 17.3791L21.0233 15.5583Z" fill="#0D0D0D" fill-opacity="0.75"/>
</g>
</svg>
