<svg width="23" height="23" viewBox="0 0 23 23" fill="none" xmlns="http://www.w3.org/2000/svg">
<g id="Extra Icons">
<path id="Vector" d="M17.1903 16.2497L19.8335 18.9048C19.9568 19.0331 20.025 19.2049 20.0235 19.3832C20.0219 19.5615 19.9508 19.7321 19.8253 19.8582C19.6998 19.9843 19.5301 20.0558 19.3527 20.0574C19.1752 20.0589 19.0043 19.9904 18.8767 19.8665L16.2334 17.21C14.506 18.6973 12.2726 19.4545 10.0018 19.3225C7.73102 19.1906 5.59931 18.1799 4.05401 16.5024C2.50871 14.825 1.66995 12.6112 1.71373 10.3256C1.7575 8.04005 2.68042 5.86035 4.2888 4.24391C5.89719 2.62747 8.06603 1.69993 10.3402 1.65594C12.6144 1.61194 14.8171 2.4549 16.4862 4.00794C18.1553 5.56098 19.161 7.70337 19.2923 9.98555C19.4235 12.2677 18.6702 14.5123 17.1903 16.2483V16.2497ZM10.5096 17.9771C12.4839 17.9771 14.3773 17.1889 15.7733 15.7859C17.1693 14.3829 17.9536 12.48 17.9536 10.4959C17.9536 8.51174 17.1693 6.60885 15.7733 5.20585C14.3773 3.80284 12.4839 3.01464 10.5096 3.01464C8.53536 3.01464 6.64196 3.80284 5.24595 5.20585C3.84993 6.60885 3.06566 8.51174 3.06566 10.4959C3.06566 12.48 3.84993 14.3829 5.24595 15.7859C6.64196 17.1889 8.53536 17.9771 10.5096 17.9771Z" fill="#A2A3A4"/>
</g>
</svg>
